<?xml version="1.0" encoding="UTF-8" standalone="no"?>
<!-- Created with Inkscape (http://www.inkscape.org/) -->

<svg
   xmlns:dc="http://purl.org/dc/elements/1.1/"
   xmlns:cc="http://creativecommons.org/ns#"
   xmlns:rdf="http://www.w3.org/1999/02/22-rdf-syntax-ns#"
   xmlns:svg="http://www.w3.org/2000/svg"
   xmlns="http://www.w3.org/2000/svg"
   xmlns:sodipodi="http://sodipodi.sourceforge.net/DTD/sodipodi-0.dtd"
   xmlns:inkscape="http://www.inkscape.org/namespaces/inkscape"
   width="20"
   height="20"
   viewBox="0 0 20 20"
   id="svg4234"
   version="1.1"
   inkscape:version="0.91 r13725"
   sodipodi:docname="condition.svg">
  <defs
     id="defs4236" />
  <sodipodi:namedview
     id="base"
     pagecolor="#ffffff"
     bordercolor="#666666"
     borderopacity="1.0"
     inkscape:pageopacity="0.0"
     inkscape:pageshadow="2"
     inkscape:zoom="2.8284271"
     inkscape:cx="10"
     inkscape:cy="10"
     inkscape:document-units="px"
     inkscape:current-layer="layer1"
     showgrid="false"
     units="px"
     inkscape:window-width="1920"
     inkscape:window-height="1080"
     inkscape:window-x="1920"
     inkscape:window-y="0"
     inkscape:window-maximized="1" />
  <metadata
     id="metadata4239">
    <rdf:RDF>
      <cc:Work
         rdf:about="">
        <dc:format>image/svg+xml</dc:format>
        <dc:type
           rdf:resource="http://purl.org/dc/dcmitype/StillImage" />
        <dc:title></dc:title>
      </cc:Work>
    </rdf:RDF>
  </metadata>
  <g
     inkscape:label="Layer 1"
     inkscape:groupmode="layer"
     id="layer1"
     transform="translate(0,-1032.3622)">
    <g
       style="font-style:normal;font-variant:normal;font-weight:normal;font-stretch:normal;font-size:14px;line-height:125%;font-family:'DejaVu Sans';-inkscape-font-specification:'DejaVu Sans';text-align:center;letter-spacing:0px;word-spacing:0px;writing-mode:lr-tb;text-anchor:middle;fill:#000000;fill-opacity:1;stroke:none;stroke-width:1px;stroke-linecap:butt;stroke-linejoin:miter;stroke-opacity:1"
       id="text5008"
       transform="matrix(1.9248167,0,0,1.9248167,59.303691,-963.13685)">
      <path
         d="m -26.670898,1045.3759 1.387695,0 0,1.7363 -1.387695,0 0,-1.7363 z m 1.346679,-1.0049 -1.305664,0 0,-1.0528 q 0,-0.6904 0.191406,-1.1347 0.191407,-0.4444 0.806641,-1.0323 l 0.615234,-0.6084 q 0.389649,-0.3623 0.560547,-0.6835 0.177735,-0.3213 0.177735,-0.6563 0,-0.6084 -0.451172,-0.9844 -0.444336,-0.3759 -1.182617,-0.3759 -0.540039,0 -1.155274,0.2392 -0.608398,0.2393 -1.271484,0.6973 l 0,-1.2852 q 0.642578,-0.3896 1.298828,-0.581 0.663086,-0.1914 1.367187,-0.1914 1.257813,0 2.016602,0.663 0.765625,0.6631 0.765625,1.75 0,0.5196 -0.246094,0.9913 -0.246093,0.4648 -0.861328,1.0527 l -0.601562,0.5879 q -0.321289,0.3213 -0.458008,0.5058 -0.129883,0.1778 -0.18457,0.3487 -0.04102,0.1435 -0.06152,0.3486 -0.02051,0.2051 -0.02051,0.5606 l 0,0.8408 z"
         id="path5013"
         inkscape:connector-curvature="0" />
    </g>
  </g>
</svg>
