<?xml version="1.0" encoding="UTF-8" standalone="no"?>
<!-- Created with Inkscape (http://www.inkscape.org/) -->

<svg
   xmlns:dc="http://purl.org/dc/elements/1.1/"
   xmlns:cc="http://creativecommons.org/ns#"
   xmlns:rdf="http://www.w3.org/1999/02/22-rdf-syntax-ns#"
   xmlns:svg="http://www.w3.org/2000/svg"
   xmlns="http://www.w3.org/2000/svg"
   xmlns:sodipodi="http://sodipodi.sourceforge.net/DTD/sodipodi-0.dtd"
   xmlns:inkscape="http://www.inkscape.org/namespaces/inkscape"
   width="20"
   height="20"
   viewBox="0 0 20 20"
   id="svg4234"
   version="1.1"
   inkscape:version="0.91 r13725"
   sodipodi:docname="left.svg">
  <defs
     id="defs4236" />
  <sodipodi:namedview
     id="base"
     pagecolor="#ffffff"
     bordercolor="#666666"
     borderopacity="1.0"
     inkscape:pageopacity="0.0"
     inkscape:pageshadow="2"
     inkscape:zoom="8"
     inkscape:cx="11"
     inkscape:cy="12"
     inkscape:document-units="px"
     inkscape:current-layer="layer1"
     showgrid="false"
     units="px"
     inkscape:window-width="1920"
     inkscape:window-height="1080"
     inkscape:window-x="1920"
     inkscape:window-y="0"
     inkscape:window-maximized="1" />
  <metadata
     id="metadata4239">
    <rdf:RDF>
      <cc:Work
         rdf:about="">
        <dc:format>image/svg+xml</dc:format>
        <dc:type
           rdf:resource="http://purl.org/dc/dcmitype/StillImage" />
        <dc:title></dc:title>
      </cc:Work>
    </rdf:RDF>
  </metadata>
  <g
     inkscape:label="Layer 1"
     inkscape:groupmode="layer"
     id="layer1"
     transform="translate(0,-1032.3622)">
    <path
       d="m 4.5912531,1040.2346 5.2183693,-0.022 3.6e-6,2.6875 -8.8017787,0.022 -1.00784755,-1.0078 2.5e-6,-8.8243 2.68757465,0 -1.86e-5,5.2408 0.5599207,-0.5599 q 1.4221642,-1.4221 3.1915002,-2.1613 1.7021148,-0.6941 3.7961838,-0.7279 1.970891,0.045 3.751397,0.7279 1.724522,0.6944 3.157892,2.1277 1.433369,1.4334 2.127657,3.1578 0.683088,1.7806 0.727891,3.7516 -0.03361,2.094 -0.727888,3.7961 -0.739078,1.7693 -2.161242,3.1916 l -1.903695,-1.9037 q 1.041428,-1.0414 1.578928,-2.3181 0.537508,-1.2766 0.537512,-2.7547 -0.01121,-1.3326 -0.53751,-2.7323 -0.459119,-1.1983 -1.522958,-2.2621 -1.063822,-1.0638 -2.306843,-1.5678 -1.310161,-0.5263 -2.732344,-0.5375 -1.4333677,0 -2.7547607,0.5375 -1.2765942,0.5375 -2.318023,1.5789 l -0.5599219,0.56 z"
       style="font-style:normal;font-variant:normal;font-weight:normal;font-stretch:normal;font-size:medium;line-height:125%;font-family:'DejaVu Sans';-inkscape-font-specification:'DejaVu Sans';text-align:center;letter-spacing:0px;word-spacing:0px;writing-mode:lr-tb;text-anchor:middle;fill:#000000;fill-opacity:1;stroke:none;stroke-width:1px;stroke-linecap:butt;stroke-linejoin:miter;stroke-opacity:1"
       id="path4178"
       inkscape:connector-curvature="0" />
  </g>
</svg>
