<?xml version="1.0" encoding="UTF-8" standalone="no"?>
<!-- Created with Inkscape (http://www.inkscape.org/) -->

<svg
   xmlns:dc="http://purl.org/dc/elements/1.1/"
   xmlns:cc="http://creativecommons.org/ns#"
   xmlns:rdf="http://www.w3.org/1999/02/22-rdf-syntax-ns#"
   xmlns:svg="http://www.w3.org/2000/svg"
   xmlns="http://www.w3.org/2000/svg"
   xmlns:sodipodi="http://sodipodi.sourceforge.net/DTD/sodipodi-0.dtd"
   xmlns:inkscape="http://www.inkscape.org/namespaces/inkscape"
   width="20"
   height="20"
   viewBox="0 0 20 20"
   id="svg4234"
   version="1.1"
   inkscape:version="0.91 r13725"
   sodipodi:docname="while.svg">
  <defs
     id="defs4236" />
  <sodipodi:namedview
     id="base"
     pagecolor="#ffffff"
     bordercolor="#666666"
     borderopacity="1.0"
     inkscape:pageopacity="0.0"
     inkscape:pageshadow="2"
     inkscape:zoom="5.6568542"
     inkscape:cx="10"
     inkscape:cy="10"
     inkscape:document-units="px"
     inkscape:current-layer="layer1"
     showgrid="false"
     units="px"
     inkscape:window-width="1920"
     inkscape:window-height="1080"
     inkscape:window-x="1920"
     inkscape:window-y="0"
     inkscape:window-maximized="1" />
  <metadata
     id="metadata4239">
    <rdf:RDF>
      <cc:Work
         rdf:about="">
        <dc:format>image/svg+xml</dc:format>
        <dc:type
           rdf:resource="http://purl.org/dc/dcmitype/StillImage" />
        <dc:title></dc:title>
      </cc:Work>
    </rdf:RDF>
  </metadata>
  <g
     inkscape:label="Layer 1"
     inkscape:groupmode="layer"
     id="layer1"
     transform="translate(0,-1032.3622)">
    <g
       style="font-style:normal;font-variant:normal;font-weight:normal;font-stretch:normal;font-size:14px;line-height:125%;font-family:'DejaVu Sans';-inkscape-font-specification:'DejaVu Sans';text-align:center;letter-spacing:0px;word-spacing:0px;writing-mode:lr-tb;text-anchor:middle;fill:#000000;fill-opacity:1;stroke:none;stroke-width:1px;stroke-linecap:butt;stroke-linejoin:miter;stroke-opacity:1"
       id="text5008"
       transform="matrix(1.1439116,0,0,1.1439116,37.798402,-147.26484)">
      <path
         d="m -26.670898,1045.3759 1.387695,0 0,1.7363 -1.387695,0 0,-1.7363 z m 1.346679,-1.0049 -1.305664,0 0,-1.0528 q 0,-0.6904 0.191406,-1.1347 0.191407,-0.4444 0.806641,-1.0323 l 0.615234,-0.6084 q 0.389649,-0.3623 0.560547,-0.6835 0.177735,-0.3213 0.177735,-0.6563 0,-0.6084 -0.451172,-0.9844 -0.444336,-0.3759 -1.182617,-0.3759 -0.540039,0 -1.155274,0.2392 -0.608398,0.2393 -1.271484,0.6973 l 0,-1.2852 q 0.642578,-0.3896 1.298828,-0.581 0.663086,-0.1914 1.367187,-0.1914 1.257813,0 2.016602,0.663 0.765625,0.6631 0.765625,1.75 0,0.5196 -0.246094,0.9913 -0.246093,0.4648 -0.861328,1.0527 l -0.601562,0.5879 q -0.321289,0.3213 -0.458008,0.5058 -0.129883,0.1778 -0.18457,0.3487 -0.04102,0.1435 -0.06152,0.3486 -0.02051,0.2051 -0.02051,0.5606 l 0,0.8408 z"
         id="path5013"
         inkscape:connector-curvature="0" />
    </g>
    <g
       transform="matrix(-1.0420849,0.33021657,-0.33021657,-1.0420849,-1.973025,-96.771684)"
       style="font-style:normal;font-variant:normal;font-weight:normal;font-stretch:normal;font-size:24.78757858px;line-height:125%;font-family:'DejaVu Sans';-inkscape-font-specification:'DejaVu Sans';text-align:center;letter-spacing:0px;word-spacing:0px;writing-mode:lr-tb;text-anchor:middle;fill:#000000;fill-opacity:1;stroke:none;stroke-width:1px;stroke-linecap:butt;stroke-linejoin:miter;stroke-opacity:1"
       id="text4782">
      <path
         d="m 309.84335,-1000.4092 1.4524,-1.4524 c 0.74234,0.7665 1.29506,1.5815 1.65815,2.44484 0.37117,0.90372 0.55676,1.86795 0.55676,2.8927 0,1.00054 -0.18559,1.95267 -0.55676,2.85638 -0.3873,0.91178 -0.94002,1.72674 -1.65815,2.44487 -0.71006,0.70199 -1.51695,1.24663 -2.42066,1.63394 -0.87144,0.37117 -1.82357,0.55675 -2.85638,0.55675 -1.07316,0 -2.02529,-0.18558 -2.85638,-0.55675 -0.93599,-0.41958 -1.74288,-0.96423 -2.42066,-1.63394 -0.71813,-0.71813 -1.27085,-1.53309 -1.65816,-2.44487 -0.37117,-0.90371 -0.55675,-1.85584 -0.55675,-2.85638 0,-1.02475 0.18558,-1.98898 0.55675,-2.8927 0.37924,-0.90374 0.93196,-1.71864 1.65816,-2.44484 l 0.42361,-0.4236 -3.99409,0 0,-2.0576 6.72944,0 0.77461,0.7746 0,3.5159 -2.05756,1.36136 0,-2.14186 -0.42362,0.4236 c -0.53255,0.53253 -0.93599,1.12558 -1.21033,1.77916 -0.26627,0.65358 -0.39941,1.35557 -0.39941,2.10598 0,0.72619 0.13314,1.41608 0.39941,2.06966 0.26627,0.65358 0.66568,1.24664 1.19823,1.77919 0.51641,0.50834 1.10543,0.90371 1.76708,1.18612 0.62937,0.26627 1.32733,0.39941 2.09388,0.39941 0.76654,0 1.44836,-0.13314 2.04545,-0.39941 0.69393,-0.31469 1.28296,-0.71006 1.76709,-1.18612 0.53255,-0.53255 0.93196,-1.12561 1.19823,-1.77919 0.26627,-0.65358 0.3994,-1.34347 0.3994,-2.06966 0,-0.75041 -0.13313,-1.4524 -0.3994,-2.10598 -0.25821,-0.65358 -0.66165,-1.24663 -1.21034,-1.77916 z"
         id="path4787"
         inkscape:connector-curvature="0"
         sodipodi:nodetypes="cccscccscccsccccccccccscssccsccsscc" />
    </g>
  </g>
</svg>
